<svg fill="none" height="14" viewBox="0 0 14 14" width="14" xmlns="http://www.w3.org/2000/svg" xmlns:xlink="http://www.w3.org/1999/xlink"><clipPath id="a"><path d="m0 0h14v14h-14z"/></clipPath><g clip-path="url(#a)"><g fill="#000001"><path d="m3.25 10c-.14834 0-.29334.044-.41668.1264-.12333.0824-.21946.1995-.27623.3366-.05677.137-.07162.2878-.04268.4333s.10037.2791.20526.384.23853.1764.38401.2053c.14549.0289.29629.0141.43333-.0427.13705-.0568.25418-.1529.33659-.2762.08241-.1234.1264-.2684.1264-.4167-.00259-.1981-.08244-.3874-.22253-.5275-.1401-.1401-.32936-.2199-.52747-.2225z"/><path d="m1.25 12.5c-.14834 0-.29334.044-.416677.1264s-.219467.1995-.276232.3366c-.056766.137-.071619.2878-.04268.4333s.10037.2791.205259.384c.10489.1049.238527.1764.38401.2053.14549.0289.29629.0141.43333-.0427.13705-.0568.25418-.1529.33659-.2762.08241-.1234.1264-.2684.1264-.4167-.00259-.1981-.08244-.3874-.22253-.5275-.1401-.1401-.32936-.2199-.52747-.2225z"/><path d="m7.25 10c-.14834 0-.29334.044-.41668.1264-.12333.0824-.21946.1995-.27623.3366-.05677.137-.07162.2878-.04268.4333s.10037.2791.20526.384.23853.1764.38401.2053c.14549.0289.29629.0141.43333-.0427.13705-.0568.25418-.1529.33659-.2762.08241-.1234.1264-.2684.1264-.4167-.00259-.1981-.08244-.3874-.22253-.5275-.1401-.1401-.32936-.2199-.52747-.2225z"/><path d="m5 12.5c-.14834 0-.29334.044-.41668.1264-.12333.0824-.21946.1995-.27623.3366-.05677.137-.07162.2878-.04268.4333s.10037.2791.20526.384.23853.1764.38401.2053c.14549.0289.29629.0141.43333-.0427.13705-.0568.25418-.1529.33659-.2762.08241-.1234.1264-.2684.1264-.4167-.00259-.1981-.08244-.3874-.22253-.5275-.1401-.1401-.32936-.2199-.52747-.2225z"/><path d="m10.75 10c-.1483 0-.2933.044-.4167.1264-.1233.0824-.2194.1995-.2762.3366-.0568.137-.07163.2878-.0427.4333.029.1455.1004.2791.2053.384s.2385.1764.384.2053.2963.0141.4333-.0427c.1371-.0568.2542-.1529.3366-.2762.0824-.1234.1264-.2684.1264-.4167-.0026-.1981-.0824-.3874-.2225-.5275s-.3294-.2199-.5275-.2225z"/><path d="m9 12.5c-.14834 0-.29334.044-.41668.1264-.12333.0824-.21946.1995-.27623.3366-.05676.137-.07162.2878-.04268.4333s.10037.2791.20526.384.23853.1764.38401.2053c.14549.0289.29629.0141.43333-.0427.13705-.0568.25418-.1529.33659-.2762.08241-.1234.1264-.2684.1264-.4167-.00259-.1981-.08244-.3874-.22253-.5275-.1401-.1401-.32936-.2199-.52747-.2225z"/><path d="m12.75 12.5c-.1483 0-.2933.044-.4167.1264-.1233.0824-.2194.1995-.2762.3366-.0568.137-.0716.2878-.0427.4333.029.1455.1004.2791.2053.384s.2385.1764.384.2053.2963.0141.4333-.0427c.1371-.0568.2542-.1529.3366-.2762.0824-.1234.1264-.2684.1264-.4167-.0026-.1981-.0824-.3874-.2225-.5275s-.3294-.2199-.5275-.2225z"/></g><path d="m10.5 8c.663 0 1.2989-.26339 1.7678-.73223.4688-.46885.7322-1.10473.7322-1.76777s-.2634-1.29893-.7322-1.76777c-.4689-.46884-1.1048-.73223-1.7678-.73223-.57023.0019-1.12324.19563-1.57.55-.13289-.69938-.46211-1.34649-.94917-1.86568-.48707-.5192-1.11186-.889023-1.80134-1.066252s-1.41517-.154539-2.09223.065417c-.67706.219957-1.27753.628095-1.73121 1.176695-.45368.54861-.74182 1.21502-.83076 1.92134-.08893.70632.02502 1.42336.32854 2.06731s.78406 1.1882 1.38546 1.56913c.60141.38094 1.29882.58281 2.01071.58204z" stroke="#000001" stroke-linecap="round" stroke-linejoin="round"/></g></svg>