<svg height="32" viewBox="0 0 32 32" width="32" xmlns="http://www.w3.org/2000/svg"><path d="m13 10h2v2h-2z"/><path d="m15 12h2v2h-2z"/><path d="m17 14h2v2h-2z"/><path d="m17 10h2v2h-2z"/><path d="m13 14h2v2h-2z"/><path d="m3 26h2v2h-2z"/><path d="m5 28h2v2h-2z"/><path d="m7 30h2v2h-2z"/><path d="m7 26h2v2h-2z"/><path d="m3 30h2v2h-2z"/><path d="m23 26h2v2h-2z"/><path d="m25 28h2v2h-2z"/><path d="m27 30h2v2h-2z"/><path d="m27 26h2v2h-2z"/><path d="m23 30h2v2h-2z"/><path d="m8 18h2v2h-2z"/><path d="m10 20h2v2h-2z"/><path d="m12 22h2v2h-2z"/><path d="m12 18h2v2h-2z"/><path d="m8 22h2v2h-2z"/><path d="m18 18h2v2h-2z"/><path d="m20 20h2v2h-2z"/><path d="m22 22h2v2h-2z"/><path d="m22 18h2v2h-2z"/><path d="m18 22h2v2h-2z"/><path d="m13 26h2v2h-2z"/><path d="m15 28h2v2h-2z"/><path d="m17 30h2v2h-2z"/><path d="m17 26h2v2h-2z"/><path d="m13 30h2v2h-2z"/><path d="m24.8008 9.1362a8.9943 8.9943 0 0 0 -17.6006 0 6.4957 6.4957 0 0 0 -1.2002 12.3623v-2.26a4.4943 4.4943 0 0 1 2.144-8.2195l.8155-.0639.0991-.812a6.9938 6.9938 0 0 1 13.8838 0l.0986.812.8154.0639a4.4944 4.4944 0 0 1 2.1436 8.2193v2.26a6.4958 6.4958 0 0 0 -1.1992-12.3621z"/><path d="m0 0h32v32h-32z" fill="none"/></svg>