<svg height="32" viewBox="0 0 32 32" width="32" xmlns="http://www.w3.org/2000/svg"><circle cx="21.4995" cy="29.5" r="1.5"/><circle cx="24.4995" cy="25.5" r="1.5"/><circle cx="7.5" cy="25.5" r="1.5"/><circle cx="4.4995" cy="29.5" r="1.5"/><circle cx="10.4995" cy="29.5" r="1.5"/><path d="m15.868 30.496-1.736-.992 3.144-5.504h-5.999l4.855-8.496 1.736.992-3.145 5.504h6.001z"/><path d="m23.5 22h-.5v-2h.5a4.4975 4.4975 0 0 0 .3564-8.981l-.8154-.0639-.0986-.812a6.9938 6.9938 0 0 0 -13.8838 0l-.0991.812-.8155.0639a4.4975 4.4975 0 0 0 .356 8.981h.5v2h-.5a6.4973 6.4973 0 0 1 -1.3-12.8638 8.9943 8.9943 0 0 1 17.6006 0 6.4974 6.4974 0 0 1 -1.3006 12.8638z"/><path d="m0 0h32v32h-32z" fill="none"/></svg>