<svg height="32" viewBox="0 0 32 32" width="32" xmlns="http://www.w3.org/2000/svg"><path d="m24.768 16.864c0-.096 0-.224 0-.352 0-3.296-2.688-5.952-5.952-5.952-.512 0-.992.064-1.472.192-.64-1.44-2.048-2.4-3.68-2.4-2.208 0-4 1.792-4 4 0 .608.064 1.152.384 1.728-1.472.96-2.432 2.624-2.432 4.512s0 0 0 .032c0 3.008 2.432 5.44 5.44 5.44.48 0 .896-.416.896-.896s-.384-.896-.896-.896c-1.952 0-3.584-1.6-3.616-3.552 0-.032.032-.096.032-.128 0-.608.16-1.152.416-1.664.608-1.12 1.792-1.888 3.168-1.888.256 0 .576.032.832.096.448.16.896.416 1.216.64.416.256.96.16 1.248-.256.256-.416.16-.96-.256-1.248-.16-.096-.32-.224-.512-.32.768-.96 1.952-1.568 3.232-1.568 2.272 0 4.128 1.856 4.128 4.128 0 .224-.032.448-.064.704-.064.384.128.8.512.96.768.352 1.248 1.12 1.248 1.952 0 1.184-.96 2.144-2.144 2.144-.48 0-.896.416-.896.896s.384.896.896.896c2.176 0 3.936-1.792 4-3.968 0-1.28-.672-2.496-1.728-3.232zm-11.712-3.712c-.48 0-.928.064-1.376.192-.16-.256-.224-.48-.224-.992 0-1.216.992-2.208 2.208-2.208.864 0 1.664.544 2.016 1.312-.704.448-1.344 1.056-1.824 1.792-.256-.064-.512-.096-.8-.096z"/><path d="m18.88 22.4h-.8l1.504-2.176c.288-.416.192-.96-.224-1.248s-.96-.192-1.248.224l-2.496 3.584c-.192.288-.224.64-.064.928s.48.48.8.48h.864l-1.632 2.56c-.256.416-.128.992.288 1.248.16.096.32.128.48.128.32 0 .608-.16.8-.384l2.496-3.936c.192-.288.192-.64.032-.928s-.48-.48-.8-.48z"/><path d="m13.664 7.264c.512 0 .896-.384.896-.896v-.928c0-.48-.416-.896-.896-.896s-.896.384-.896.896v.928c0 .48.384.896.896.896z"/><path d="m8.8 8.768c.192.16.416.256.64.256s.448-.096.64-.256c.352-.352.352-.928 0-1.28l-.64-.64c-.352-.352-.928-.352-1.28 0s-.352.928 0 1.28z"/><path d="m8.576 12.352c0-.48-.384-.896-.896-.896h-.928c-.48 0-.896.384-.896.896 0 .48.384.896.896.896h.928c.512 0 .896-.416.896-.896z"/><path d="m17.888 9.024c.224 0 .448-.096.64-.256l.64-.64c.352-.352.352-.928 0-1.28s-.928-.352-1.28 0l-.64.64c-.352.352-.352.928 0 1.28.192.16.416.256.64.256z"/></svg>