<svg height="20" viewBox="0 0 20 20" width="20" xmlns="http://www.w3.org/2000/svg"><path d="m11 7c2.4645648 0 3.8626705 1.57359992 4.0660053 3.4739903l.0621998-.0000019c1.5860485 0 2.8717949 1.2370398 2.8717949 2.7630058s-1.2857464 2.7630058-2.8717949 2.7630058h-8.25641023c-1.58604851 0-2.87179487-1.2370398-2.87179487-2.7630058s1.28574636-2.7630058 2.87181238-2.7630058l.06218228.0000019c.20451773-1.91288113 1.60144055-3.4739903 4.06600534-3.4739903zm0 1c-1.64943703 0-3.08710357 1.27029833-3.08710357 3.0249473 0 .2780209-.25398626.4961813-.54481231.4961722l-.5499023-.0000171c-1.00415409 0-1.81818182.7787778-1.81818182 1.7394488 0 .9606711.81402773 1.7394488 1.81818182 1.7394488h8.36363638c1.0041541 0 1.8181818-.7787777 1.8181818-1.7394488 0-.960671-.8140277-1.7394488-1.8181641-1.7394488l-.54992.0000171c-.2908261.0000091-.5448123-.2181513-.5448123-.4961722 0-1.77715747-1.4376666-3.0249473-3.0871036-3.0249473zm-7.1967745 1.70081424c.07991392.23208688-.02086058.48269796-.2276188.59866596l-.08235641.0368774-.80140556.2759461c-.26109775.0899031-.54564021-.0488775-.63554337-.3099752-.07991392-.2320869.02086058-.48269803.2276188-.59866598l.08235641-.03687743.80140556-.27594606c.26109775-.08990317.5456402.04887746.63554337.30997521zm5.11605371-4.20058209c.33252029.16218099.6253328.37314149.87402344.62006204-.40632571.08313314-.78606488.20974437-1.13638935.37480827-.05563602-.03405285-.1148547-.06625115-.17600523-.09607626-1.13182757-.55202919-2.49686318-.08200974-3.04889237 1.04981783-.38481374.78898509-.27297957 1.69129382.2134749 2.35253227-.32996853.09825183-.64031399.2411058-.92443382.4207289-.59705911-.93146035-.70869697-2.14370729-.18783513-3.21163231.79413489-1.62821782 2.75783975-2.30437563 4.38605756-1.51024074zm-6.00346258.16953662.08431105.0321585.76180264.37155597c.24819512.12105285.3512643.42038748.23021145.6685826-.10760253.22061789-.35606968.32656836-.58427154.26236995l-.08431105-.0321585-.76180264-.37155597c-.24819513-.12105285-.3512643-.42038748-.23021145-.6685826.10760253-.22061789.35606967-.32656836.58427154-.26236995zm7.07335584-2.37436261c.22061793.10760253.32656833.35606968.26236993.58427154l-.0321585.08431106-.37155596.76180264c-.12105285.24819512-.42038747.35126429-.66858259.23021145-.22061789-.10760254-.32656836-.35606968-.26236995-.58427154l.0321585-.08431106.37155597-.76180264c.12105285-.24819512.42038747-.3512643.6685826-.23021145zm-3.78986833-.03242636.03687743.08235641.27594607.80140557c.08990316.26109774-.04887747.5456402-.30997521.63554336-.23208689.07991392-.48269799-.02086058-.59866594-.2276188l-.03687743-.08235641-.27594606-.80140556c-.08990317-.26109775.04887746-.5456402.30997521-.63554337.23208688-.07991392.48269798.02086059.59866593.2276188z" fill="#212121"/></svg>