<svg height="56" viewBox="0 0 56 56" width="56" xmlns="http://www.w3.org/2000/svg"><path d="m12.2617 35.5117h29.0859c7.6876 0 13.4063-5.8359 13.4063-13.0781 0-7.4531-6.0936-12.9141-14.0391-12.9141-2.9297-5.789-8.3672-9.1295-15.1406-9.1295-8.8125 0-16.0782 6.5045-16.8516 15.2233-4.2422 1.2187-7.4765 4.9218-7.4765 9.8672 0 5.5312 4.0312 10.0312 11.0156 10.0312zm-.0469-3.7734c-4.8047 0-7.2188-2.6719-7.2188-6.1407 0-2.8359 1.6407-5.3671 5.6251-6.4218 1.289-.3282 1.7578-.9375 1.8749-2.2734.5391-7.6407 6.2813-13.1485 13.0782-13.1485 5.2734 0 9.4218 2.8828 11.9531 8.0859.5391 1.125 1.2422 1.5235 2.625 1.5235 6.9375 0 10.8514 4.1953 10.8514 9.1875 0 5.1094-4.0781 9.1875-9.4217 9.1875zm1.1485 15.4687c.4218 0 .7265-.3984.7031-.8437l-.1641-2.2266 1.875 1.2656c.3281.2344.8672.1407 1.1016-.2109.2109-.3516.0937-.8906-.3751-1.1016l-2.0156-.9843 2.0391-1.0078c.4453-.211.5391-.7266.375-1.0782-.2109-.375-.7969-.4453-1.125-.2109l-1.875 1.2891.1875-2.25c.0469-.4688-.3047-.8438-.7265-.8438-.4922 0-.7969.375-.7735.8438l.164 2.25-1.8984-1.2891c-.3281-.2344-.8203-.1875-1.0547.2109-.2109.3516-.1171.8438.3282 1.0782l2.0156 1.0078-2.0156.9843c-.4453.211-.5625.7266-.3516 1.1016s.75.4453 1.0781.2109l1.8984-1.2656-.1405 2.2266c-.0235.4453.2578.8437.75.8437zm25.9687 0c.4218 0 .7266-.3984.7031-.8437l-.164-2.2266 1.8749 1.2656c.3282.2344.8673.1407 1.0782-.2109.2344-.3516.0937-.8906-.3516-1.1016l-2.0156-.9843 2.039-1.0078c.4219-.211.5391-.7266.3516-1.0782-.1875-.375-.7734-.4453-1.1016-.2109l-1.8749 1.2891.1875-2.25c.0468-.4688-.3048-.8438-.7266-.8438-.4922 0-.7969.375-.7734.8438l.164 2.25-1.8984-1.2891c-.3282-.2344-.8204-.1875-1.0547.2109-.2109.3516-.1172.8438.3281 1.0782l2.0157 1.0078-2.0157.9843c-.4453.211-.5625.7266-.3516 1.1016.211.375.75.4453 1.0782.2109l1.8984-1.2656-.1406 2.2266c-.0234.4453.2578.8437.75.8437zm-12.9844 0c.4219 0 .7266-.3984.7031-.8437l-.164-2.2266 1.875 1.2656c.3281.2344.8672.1407 1.0781-.2109.2344-.3516.0938-.8906-.3516-1.1016l-2.0156-.9843 2.0391-1.0078c.4219-.211.539-.7266.3516-1.0782-.1875-.375-.7735-.4453-1.1016-.2109l-1.875 1.2891.1875-2.25c.0469-.4688-.3047-.8438-.7266-.8438-.4922 0-.7969.375-.7734.8438l.164 2.25-1.8984-1.2891c-.3281-.2344-.8203-.1875-1.0547.2109-.2109.3516-.1172.8438.3282 1.0782l2.0156 1.0078-2.0156.9843c-.4454.211-.5626.7266-.3516 1.1016.2109.375.75.4453 1.0781.2109l1.8984-1.2656-.1406 2.2266c-.0234.4453.2578.8437.75.8437zm-5.0859 8.7891c.4219 0 .7265-.3985.7031-.8203l-.1641-2.25 1.8751 1.2656c.328.2344.8671.1406 1.1015-.2109.2109-.3516.0703-.8907-.375-1.1016l-2.0156-.9844 2.039-1.0078c.4219-.2109.5391-.7031.3516-1.0781s-.7735-.4453-1.1015-.211l-1.8751 1.2891.1875-2.25c.0469-.4687-.3046-.8438-.7265-.8438-.4922 0-.7969.3751-.7735.8438l.1641 2.25-1.8985-1.2891c-.3281-.2343-.8202-.1874-1.0546.211-.211.375-.1172.8672.3281 1.0781l2.0156 1.0078-2.0156.9844c-.4453.2109-.5625.7266-.3515 1.1016.2109.375.7499.4453 1.078.2109l1.8985-1.2422-.1406 2.2266c-.0235.4218.2578.8203.75.8203zm12.9843 0c.4219 0 .7266-.3985.7032-.8203l-.1641-2.25 1.875 1.2656c.3281.2344.8672.1406 1.0781-.2109.2344-.3516.0938-.8907-.3515-1.1016l-2.0156-.9844 2.039-1.0078c.4219-.2109.5391-.7031.3516-1.0781s-.7735-.4453-1.1016-.211l-1.875 1.2891.1875-2.25c.0469-.4687-.3047-.8438-.7266-.8438-.4922 0-.7968.3751-.7734.8438l.1641 2.25-1.8985-1.2891c-.3281-.2343-.8203-.1874-1.0546.211-.211.375-.1172.8672.3281 1.0781l2.0156 1.0078-2.0156.9844c-.4453.2109-.5625.7266-.3516 1.1016.211.375.75.4453 1.0781.2109l1.8985-1.2422-.1407 2.2266c-.0234.4218.2578.8203.75.8203zm-25.9687 0c.4219 0 .7265-.3985.7031-.8203l-.164-2.25 1.875 1.2656c.3281.2344.8672.1406 1.1015-.2109.2109-.3516.0938-.8907-.375-1.1016l-2.0156-.9844 2.0391-1.0078c.4453-.2109.539-.7031.375-1.0781-.211-.375-.7969-.4453-1.125-.211l-1.875 1.2891.1874-2.25c.0469-.4687-.3046-.8438-.7265-.8438-.4922 0-.7969.3751-.7735.8438l.1641 2.25-1.8984-1.2891c-.3281-.2343-.8203-.1874-1.0547.211-.211.375-.1172.8672.3281 1.0781l2.0157 1.0078-2.0157.9844c-.4453.2109-.5625.7266-.3515 1.1016.2109.375.75.4453 1.0781.2109l1.8984-1.2422-.1406 2.2266c-.0235.4218.2578.8203.75.8203z"/></svg>